<?xml version="1.0" encoding="UTF-8" standalone="no"?>
<!DOCTYPE svg PUBLIC "-//W3C//DTD SVG 1.1//EN"
 "http://www.w3.org/Graphics/SVG/1.1/DTD/svg11.dtd">
<!-- Generated by graphviz version 2.42.3 (20191010.1750)
 -->
<!-- Title: snakemake_dag Pages: 1 -->
<svg width="1398pt" height="481pt"
 viewBox="0.00 0.00 1398.00 481.00" xmlns="http://www.w3.org/2000/svg" xmlns:xlink="http://www.w3.org/1999/xlink">
<g id="graph0" class="graph" transform="scale(1 1) rotate(0) translate(4 477)">
<title>snakemake_dag</title>
<polygon fill="white" stroke="transparent" points="-4,4 -4,-477 1394,-477 1394,4 -4,4"/>
<!-- 0 -->
<g id="node1" class="node">
<title>0</title>
<path fill="none" stroke="#d8b456" stroke-width="2" d="M662,-36C662,-36 632,-36 632,-36 626,-36 620,-30 620,-24 620,-24 620,-12 620,-12 620,-6 626,0 632,0 632,0 662,0 662,0 668,0 674,-6 674,-12 674,-12 674,-24 674,-24 674,-30 668,-36 662,-36"/>
<text text-anchor="middle" x="647" y="-15.5" font-family="sans" font-size="10.00">all</text>
</g>
<!-- 1 -->
<g id="node2" class="node">
<title>1</title>
<path fill="none" stroke="#56b1d8" stroke-width="2" d="M222.5,-108C222.5,-108 177.5,-108 177.5,-108 171.5,-108 165.5,-102 165.5,-96 165.5,-96 165.5,-84 165.5,-84 165.5,-78 171.5,-72 177.5,-72 177.5,-72 222.5,-72 222.5,-72 228.5,-72 234.5,-78 234.5,-84 234.5,-84 234.5,-96 234.5,-96 234.5,-102 228.5,-108 222.5,-108"/>
<text text-anchor="middle" x="200" y="-87.5" font-family="sans" font-size="10.00">root_to_tip</text>
</g>
<!-- 1&#45;&gt;0 -->
<g id="edge1" class="edge">
<title>1&#45;&gt;0</title>
<path fill="none" stroke="grey" stroke-width="2" d="M234.64,-81.44C249.5,-78.32 267.06,-74.79 283,-72 401.88,-51.19 543.6,-32.22 609.66,-23.72"/>
<polygon fill="grey" stroke="grey" stroke-width="2" points="610.5,-27.14 619.97,-22.39 609.61,-20.19 610.5,-27.14"/>
</g>
<!-- 2 -->
<g id="node3" class="node">
<title>2</title>
<path fill="none" stroke="#56b1d8" stroke-width="2" d="M447.5,-108C447.5,-108 402.5,-108 402.5,-108 396.5,-108 390.5,-102 390.5,-96 390.5,-96 390.5,-84 390.5,-84 390.5,-78 396.5,-72 402.5,-72 402.5,-72 447.5,-72 447.5,-72 453.5,-72 459.5,-78 459.5,-84 459.5,-84 459.5,-96 459.5,-96 459.5,-102 453.5,-108 447.5,-108"/>
<text text-anchor="middle" x="425" y="-87.5" font-family="sans" font-size="10.00">root_to_tip</text>
</g>
<!-- 2&#45;&gt;0 -->
<g id="edge2" class="edge">
<title>2&#45;&gt;0</title>
<path fill="none" stroke="grey" stroke-width="2" d="M459.69,-78.06C500.58,-65.17 568.26,-43.83 610.1,-30.64"/>
<polygon fill="grey" stroke="grey" stroke-width="2" points="611.4,-33.89 619.89,-27.55 609.3,-27.22 611.4,-33.89"/>
</g>
<!-- 3 -->
<g id="node4" class="node">
<title>3</title>
<path fill="none" stroke="#56b1d8" stroke-width="2" d="M628.5,-108C628.5,-108 583.5,-108 583.5,-108 577.5,-108 571.5,-102 571.5,-96 571.5,-96 571.5,-84 571.5,-84 571.5,-78 577.5,-72 583.5,-72 583.5,-72 628.5,-72 628.5,-72 634.5,-72 640.5,-78 640.5,-84 640.5,-84 640.5,-96 640.5,-96 640.5,-102 634.5,-108 628.5,-108"/>
<text text-anchor="middle" x="606" y="-87.5" font-family="sans" font-size="10.00">root_to_tip</text>
</g>
<!-- 3&#45;&gt;0 -->
<g id="edge3" class="edge">
<title>3&#45;&gt;0</title>
<path fill="none" stroke="grey" stroke-width="2" d="M616.13,-71.7C620.85,-63.64 626.56,-53.89 631.78,-44.98"/>
<polygon fill="grey" stroke="grey" stroke-width="2" points="634.95,-46.5 636.98,-36.1 628.91,-42.96 634.95,-46.5"/>
</g>
<!-- 4 -->
<g id="node5" class="node">
<title>4</title>
<path fill="none" stroke="#56b1d8" stroke-width="2" d="M805.5,-108C805.5,-108 760.5,-108 760.5,-108 754.5,-108 748.5,-102 748.5,-96 748.5,-96 748.5,-84 748.5,-84 748.5,-78 754.5,-72 760.5,-72 760.5,-72 805.5,-72 805.5,-72 811.5,-72 817.5,-78 817.5,-84 817.5,-84 817.5,-96 817.5,-96 817.5,-102 811.5,-108 805.5,-108"/>
<text text-anchor="middle" x="783" y="-87.5" font-family="sans" font-size="10.00">root_to_tip</text>
</g>
<!-- 4&#45;&gt;0 -->
<g id="edge4" class="edge">
<title>4&#45;&gt;0</title>
<path fill="none" stroke="grey" stroke-width="2" d="M749.73,-71.88C729.68,-61.56 704.13,-48.4 683.52,-37.8"/>
<polygon fill="grey" stroke="grey" stroke-width="2" points="684.93,-34.59 674.44,-33.12 681.73,-40.81 684.93,-34.59"/>
</g>
<!-- 5 -->
<g id="node6" class="node">
<title>5</title>
<path fill="none" stroke="#d85656" stroke-width="2" d="M536,-108C536,-108 500,-108 500,-108 494,-108 488,-102 488,-96 488,-96 488,-84 488,-84 488,-78 494,-72 500,-72 500,-72 536,-72 536,-72 542,-72 548,-78 548,-84 548,-84 548,-96 548,-96 548,-102 542,-108 536,-108"/>
<text text-anchor="middle" x="518" y="-87.5" font-family="sans" font-size="10.00">tree_img</text>
</g>
<!-- 5&#45;&gt;0 -->
<g id="edge5" class="edge">
<title>5&#45;&gt;0</title>
<path fill="none" stroke="grey" stroke-width="2" d="M548.24,-72.59C566.89,-62.47 590.91,-49.44 610.59,-38.75"/>
<polygon fill="grey" stroke="grey" stroke-width="2" points="612.46,-41.72 619.58,-33.88 609.12,-35.57 612.46,-41.72"/>
</g>
<!-- 6 -->
<g id="node7" class="node">
<title>6</title>
<path fill="none" stroke="#d85656" stroke-width="2" d="M1125,-108C1125,-108 1089,-108 1089,-108 1083,-108 1077,-102 1077,-96 1077,-96 1077,-84 1077,-84 1077,-78 1083,-72 1089,-72 1089,-72 1125,-72 1125,-72 1131,-72 1137,-78 1137,-84 1137,-84 1137,-96 1137,-96 1137,-102 1131,-108 1125,-108"/>
<text text-anchor="middle" x="1107" y="-87.5" font-family="sans" font-size="10.00">tree_img</text>
</g>
<!-- 6&#45;&gt;0 -->
<g id="edge6" class="edge">
<title>6&#45;&gt;0</title>
<path fill="none" stroke="grey" stroke-width="2" d="M1076.97,-77.49C1070.76,-75.42 1064.22,-73.46 1058,-72 922.5,-40.12 757.04,-26.15 684.32,-21.23"/>
<polygon fill="grey" stroke="grey" stroke-width="2" points="684.48,-17.74 674.27,-20.57 684.02,-24.72 684.48,-17.74"/>
</g>
<!-- 7 -->
<g id="node8" class="node">
<title>7</title>
<path fill="none" stroke="#d85656" stroke-width="2" d="M116,-252C116,-252 80,-252 80,-252 74,-252 68,-246 68,-240 68,-240 68,-228 68,-228 68,-222 74,-216 80,-216 80,-216 116,-216 116,-216 122,-216 128,-222 128,-228 128,-228 128,-240 128,-240 128,-246 122,-252 116,-252"/>
<text text-anchor="middle" x="98" y="-231.5" font-family="sans" font-size="10.00">tree_img</text>
</g>
<!-- 7&#45;&gt;0 -->
<g id="edge7" class="edge">
<title>7&#45;&gt;0</title>
<path fill="none" stroke="grey" stroke-width="2" d="M98.57,-215.77C100.69,-182.1 110.57,-107.72 156,-72 191.51,-44.08 501.27,-26.21 609.7,-20.77"/>
<polygon fill="grey" stroke="grey" stroke-width="2" points="610.03,-24.25 619.85,-20.26 609.69,-17.26 610.03,-24.25"/>
</g>
<!-- 8 -->
<g id="node9" class="node">
<title>8</title>
<path fill="none" stroke="#56b1d8" stroke-width="2" d="M61.5,-324C61.5,-324 16.5,-324 16.5,-324 10.5,-324 4.5,-318 4.5,-312 4.5,-312 4.5,-300 4.5,-300 4.5,-294 10.5,-288 16.5,-288 16.5,-288 61.5,-288 61.5,-288 67.5,-288 73.5,-294 73.5,-300 73.5,-300 73.5,-312 73.5,-312 73.5,-318 67.5,-324 61.5,-324"/>
<text text-anchor="middle" x="39" y="-303.5" font-family="sans" font-size="10.00">root_to_tip</text>
</g>
<!-- 8&#45;&gt;0 -->
<g id="edge8" class="edge">
<title>8&#45;&gt;0</title>
<path fill="none" stroke="grey" stroke-width="2" d="M39.22,-287.74C40.84,-243.11 52.01,-123.82 124,-72 163.29,-43.72 496.65,-25.91 609.69,-20.64"/>
<polygon fill="grey" stroke="grey" stroke-width="2" points="610.1,-24.13 619.92,-20.17 609.77,-17.14 610.1,-24.13"/>
</g>
<!-- 9 -->
<g id="node10" class="node">
<title>9</title>
<path fill="none" stroke="#d85656" stroke-width="2" d="M707,-108C707,-108 671,-108 671,-108 665,-108 659,-102 659,-96 659,-96 659,-84 659,-84 659,-78 665,-72 671,-72 671,-72 707,-72 707,-72 713,-72 719,-78 719,-84 719,-84 719,-96 719,-96 719,-102 713,-108 707,-108"/>
<text text-anchor="middle" x="689" y="-87.5" font-family="sans" font-size="10.00">tree_img</text>
</g>
<!-- 9&#45;&gt;0 -->
<g id="edge9" class="edge">
<title>9&#45;&gt;0</title>
<path fill="none" stroke="grey" stroke-width="2" d="M678.62,-71.7C673.74,-63.56 667.81,-53.69 662.42,-44.7"/>
<polygon fill="grey" stroke="grey" stroke-width="2" points="665.41,-42.88 657.26,-36.1 659.41,-46.48 665.41,-42.88"/>
</g>
<!-- 10 -->
<g id="node11" class="node">
<title>10</title>
<path fill="none" stroke="#56b1d8" stroke-width="2" d="M1037.5,-108C1037.5,-108 992.5,-108 992.5,-108 986.5,-108 980.5,-102 980.5,-96 980.5,-96 980.5,-84 980.5,-84 980.5,-78 986.5,-72 992.5,-72 992.5,-72 1037.5,-72 1037.5,-72 1043.5,-72 1049.5,-78 1049.5,-84 1049.5,-84 1049.5,-96 1049.5,-96 1049.5,-102 1043.5,-108 1037.5,-108"/>
<text text-anchor="middle" x="1015" y="-87.5" font-family="sans" font-size="10.00">root_to_tip</text>
</g>
<!-- 10&#45;&gt;0 -->
<g id="edge10" class="edge">
<title>10&#45;&gt;0</title>
<path fill="none" stroke="grey" stroke-width="2" d="M980.38,-82.41C910.97,-69.21 755.36,-39.61 684.02,-26.04"/>
<polygon fill="grey" stroke="grey" stroke-width="2" points="684.6,-22.59 674.12,-24.16 683.29,-29.47 684.6,-22.59"/>
</g>
<!-- 11 -->
<g id="node12" class="node">
<title>11</title>
<path fill="none" stroke="#d85656" stroke-width="2" d="M340,-108C340,-108 304,-108 304,-108 298,-108 292,-102 292,-96 292,-96 292,-84 292,-84 292,-78 298,-72 304,-72 304,-72 340,-72 340,-72 346,-72 352,-78 352,-84 352,-84 352,-96 352,-96 352,-102 346,-108 340,-108"/>
<text text-anchor="middle" x="322" y="-87.5" font-family="sans" font-size="10.00">tree_img</text>
</g>
<!-- 11&#45;&gt;0 -->
<g id="edge11" class="edge">
<title>11&#45;&gt;0</title>
<path fill="none" stroke="grey" stroke-width="2" d="M352.19,-79.77C361.39,-77.1 371.57,-74.29 381,-72 461.9,-52.32 557.94,-34.54 609.62,-25.43"/>
<polygon fill="grey" stroke="grey" stroke-width="2" points="610.4,-28.84 619.65,-23.67 609.19,-21.95 610.4,-28.84"/>
</g>
<!-- 12 -->
<g id="node13" class="node">
<title>12</title>
<path fill="none" stroke="#d85656" stroke-width="2" d="M893,-108C893,-108 857,-108 857,-108 851,-108 845,-102 845,-96 845,-96 845,-84 845,-84 845,-78 851,-72 857,-72 857,-72 893,-72 893,-72 899,-72 905,-78 905,-84 905,-84 905,-96 905,-96 905,-102 899,-108 893,-108"/>
<text text-anchor="middle" x="875" y="-87.5" font-family="sans" font-size="10.00">tree_img</text>
</g>
<!-- 12&#45;&gt;0 -->
<g id="edge12" class="edge">
<title>12&#45;&gt;0</title>
<path fill="none" stroke="grey" stroke-width="2" d="M844.75,-78.26C838.57,-76.13 832.09,-73.96 826,-72 777.07,-56.28 720.07,-39.69 683.77,-29.35"/>
<polygon fill="grey" stroke="grey" stroke-width="2" points="684.68,-25.97 674.11,-26.61 682.77,-32.71 684.68,-25.97"/>
</g>
<!-- 13 -->
<g id="node14" class="node">
<title>13</title>
<path fill="none" stroke="#56b1d8" stroke-width="2" d="M1251.5,-108C1251.5,-108 1206.5,-108 1206.5,-108 1200.5,-108 1194.5,-102 1194.5,-96 1194.5,-96 1194.5,-84 1194.5,-84 1194.5,-78 1200.5,-72 1206.5,-72 1206.5,-72 1251.5,-72 1251.5,-72 1257.5,-72 1263.5,-78 1263.5,-84 1263.5,-84 1263.5,-96 1263.5,-96 1263.5,-102 1257.5,-108 1251.5,-108"/>
<text text-anchor="middle" x="1229" y="-87.5" font-family="sans" font-size="10.00">root_to_tip</text>
</g>
<!-- 13&#45;&gt;0 -->
<g id="edge13" class="edge">
<title>13&#45;&gt;0</title>
<path fill="none" stroke="grey" stroke-width="2" d="M1194.4,-81.14C1179.56,-77.97 1161.99,-74.48 1146,-72 974.45,-45.39 767.63,-28.09 684.39,-21.73"/>
<polygon fill="grey" stroke="grey" stroke-width="2" points="684.4,-18.23 674.16,-20.96 683.87,-25.21 684.4,-18.23"/>
</g>
<!-- 14 -->
<g id="node15" class="node">
<title>14</title>
<path fill="none" stroke="#d85656" stroke-width="2" d="M1347,-108C1347,-108 1311,-108 1311,-108 1305,-108 1299,-102 1299,-96 1299,-96 1299,-84 1299,-84 1299,-78 1305,-72 1311,-72 1311,-72 1347,-72 1347,-72 1353,-72 1359,-78 1359,-84 1359,-84 1359,-96 1359,-96 1359,-102 1353,-108 1347,-108"/>
<text text-anchor="middle" x="1329" y="-87.5" font-family="sans" font-size="10.00">tree_img</text>
</g>
<!-- 14&#45;&gt;0 -->
<g id="edge14" class="edge">
<title>14&#45;&gt;0</title>
<path fill="none" stroke="grey" stroke-width="2" d="M1298.82,-78.74C1290.24,-76.17 1280.83,-73.67 1272,-72 1051.82,-30.29 781.77,-21.39 684.29,-19.5"/>
<polygon fill="grey" stroke="grey" stroke-width="2" points="684.13,-16 674.07,-19.32 684.01,-23 684.13,-16"/>
</g>
<!-- 15 -->
<g id="node16" class="node">
<title>15</title>
<path fill="none" stroke="#56d89a" stroke-width="2" d="M314,-180C314,-180 234,-180 234,-180 228,-180 222,-174 222,-168 222,-168 222,-156 222,-156 222,-150 228,-144 234,-144 234,-144 314,-144 314,-144 320,-144 326,-150 326,-156 326,-156 326,-168 326,-168 326,-174 320,-180 314,-180"/>
<text text-anchor="middle" x="274" y="-159.5" font-family="sans" font-size="10.00">generate_fasttree</text>
</g>
<!-- 15&#45;&gt;1 -->
<g id="edge15" class="edge">
<title>15&#45;&gt;1</title>
<path fill="none" stroke="grey" stroke-width="2" d="M255.71,-143.7C246.57,-135.05 235.36,-124.45 225.4,-115.03"/>
<polygon fill="grey" stroke="grey" stroke-width="2" points="227.75,-112.43 218.08,-108.1 222.94,-117.52 227.75,-112.43"/>
</g>
<!-- 15&#45;&gt;11 -->
<g id="edge36" class="edge">
<title>15&#45;&gt;11</title>
<path fill="none" stroke="grey" stroke-width="2" d="M285.87,-143.7C291.5,-135.47 298.35,-125.48 304.57,-116.42"/>
<polygon fill="grey" stroke="grey" stroke-width="2" points="307.5,-118.33 310.27,-108.1 301.73,-114.37 307.5,-118.33"/>
</g>
<!-- 16 -->
<g id="node17" class="node">
<title>16</title>
<path fill="none" stroke="#70d856" stroke-width="2" d="M280,-252C280,-252 196,-252 196,-252 190,-252 184,-246 184,-240 184,-240 184,-228 184,-228 184,-222 190,-216 196,-216 196,-216 280,-216 280,-216 286,-216 292,-222 292,-228 292,-228 292,-240 292,-240 292,-246 286,-252 280,-252"/>
<text text-anchor="middle" x="238" y="-237" font-family="sans" font-size="10.00">extract_sequences</text>
<text text-anchor="middle" x="238" y="-226" font-family="sans" font-size="10.00">folder: sub_rtl</text>
</g>
<!-- 16&#45;&gt;1 -->
<g id="edge16" class="edge">
<title>16&#45;&gt;1</title>
<path fill="none" stroke="grey" stroke-width="2" d="M228.32,-215.85C223.01,-205.72 216.76,-192.47 213,-180 206.89,-159.72 203.6,-135.95 201.86,-118.08"/>
<polygon fill="grey" stroke="grey" stroke-width="2" points="205.35,-117.71 200.99,-108.05 198.37,-118.32 205.35,-117.71"/>
</g>
<!-- 16&#45;&gt;15 -->
<g id="edge42" class="edge">
<title>16&#45;&gt;15</title>
<path fill="none" stroke="grey" stroke-width="2" d="M246.9,-215.7C251,-207.73 255.95,-198.1 260.49,-189.26"/>
<polygon fill="grey" stroke="grey" stroke-width="2" points="263.74,-190.6 265.2,-180.1 257.52,-187.4 263.74,-190.6"/>
</g>
<!-- 17 -->
<g id="node18" class="node">
<title>17</title>
<path fill="none" stroke="#56d8c9" stroke-width="2" d="M172,-324C172,-324 142,-324 142,-324 136,-324 130,-318 130,-312 130,-312 130,-300 130,-300 130,-294 136,-288 142,-288 142,-288 172,-288 172,-288 178,-288 184,-294 184,-300 184,-300 184,-312 184,-312 184,-318 178,-324 172,-324"/>
<text text-anchor="middle" x="157" y="-303.5" font-family="sans" font-size="10.00">sub_rtl</text>
</g>
<!-- 17&#45;&gt;1 -->
<g id="edge17" class="edge">
<title>17&#45;&gt;1</title>
<path fill="none" stroke="grey" stroke-width="2" d="M160.45,-287.85C167.9,-250.75 185.57,-162.81 194.55,-118.1"/>
<polygon fill="grey" stroke="grey" stroke-width="2" points="198,-118.73 196.54,-108.23 191.14,-117.35 198,-118.73"/>
</g>
<!-- 17&#45;&gt;16 -->
<g id="edge43" class="edge">
<title>17&#45;&gt;16</title>
<path fill="none" stroke="grey" stroke-width="2" d="M177.02,-287.7C187.13,-278.97 199.54,-268.24 210.52,-258.75"/>
<polygon fill="grey" stroke="grey" stroke-width="2" points="212.93,-261.29 218.21,-252.1 208.35,-255.99 212.93,-261.29"/>
</g>
<!-- 18 -->
<g id="node19" class="node">
<title>18</title>
<path fill="none" stroke="#56d89a" stroke-width="2" d="M530,-180C530,-180 450,-180 450,-180 444,-180 438,-174 438,-168 438,-168 438,-156 438,-156 438,-150 444,-144 450,-144 450,-144 530,-144 530,-144 536,-144 542,-150 542,-156 542,-156 542,-168 542,-168 542,-174 536,-180 530,-180"/>
<text text-anchor="middle" x="490" y="-159.5" font-family="sans" font-size="10.00">generate_fasttree</text>
</g>
<!-- 18&#45;&gt;2 -->
<g id="edge18" class="edge">
<title>18&#45;&gt;2</title>
<path fill="none" stroke="grey" stroke-width="2" d="M473.93,-143.7C466.06,-135.22 456.44,-124.86 447.83,-115.58"/>
<polygon fill="grey" stroke="grey" stroke-width="2" points="450.25,-113.05 440.88,-108.1 445.12,-117.81 450.25,-113.05"/>
</g>
<!-- 18&#45;&gt;5 -->
<g id="edge27" class="edge">
<title>18&#45;&gt;5</title>
<path fill="none" stroke="grey" stroke-width="2" d="M496.92,-143.7C500.07,-135.81 503.88,-126.3 507.38,-117.55"/>
<polygon fill="grey" stroke="grey" stroke-width="2" points="510.69,-118.69 511.16,-108.1 504.19,-116.09 510.69,-118.69"/>
</g>
<!-- 19 -->
<g id="node20" class="node">
<title>19</title>
<path fill="none" stroke="#d88556" stroke-width="2" d="M452,-324C452,-324 314,-324 314,-324 308,-324 302,-318 302,-312 302,-312 302,-300 302,-300 302,-294 308,-288 314,-288 314,-288 452,-288 452,-288 458,-288 464,-294 464,-300 464,-300 464,-312 464,-312 464,-318 458,-324 452,-324"/>
<text text-anchor="middle" x="383" y="-309" font-family="sans" font-size="10.00">sub_uniform_spatiotempo_alt</text>
<text text-anchor="middle" x="383" y="-298" font-family="sans" font-size="10.00">sample: gisaid_cov_mafft</text>
</g>
<!-- 19&#45;&gt;2 -->
<g id="edge19" class="edge">
<title>19&#45;&gt;2</title>
<path fill="none" stroke="grey" stroke-width="2" d="M363.53,-287.92C354.18,-278.4 343.95,-265.72 339,-252 333.57,-236.95 334.25,-231.28 339,-216 351.15,-176.9 380.25,-139.2 401.24,-115.62"/>
<polygon fill="grey" stroke="grey" stroke-width="2" points="403.86,-117.93 408.01,-108.18 398.69,-113.22 403.86,-117.93"/>
</g>
<!-- 20 -->
<g id="node21" class="node">
<title>20</title>
<path fill="none" stroke="#70d856" stroke-width="2" d="M530,-252C530,-252 360,-252 360,-252 354,-252 348,-246 348,-240 348,-240 348,-228 348,-228 348,-222 354,-216 360,-216 360,-216 530,-216 530,-216 536,-216 542,-222 542,-228 542,-228 542,-240 542,-240 542,-246 536,-252 530,-252"/>
<text text-anchor="middle" x="445" y="-237" font-family="sans" font-size="10.00">extract_sequences</text>
<text text-anchor="middle" x="445" y="-226" font-family="sans" font-size="10.00">folder: sub_uniform&#45;spatiotempo&#45;alt</text>
</g>
<!-- 19&#45;&gt;20 -->
<g id="edge46" class="edge">
<title>19&#45;&gt;20</title>
<path fill="none" stroke="grey" stroke-width="2" d="M398.33,-287.7C405.76,-279.3 414.82,-269.07 422.98,-259.86"/>
<polygon fill="grey" stroke="grey" stroke-width="2" points="425.84,-261.91 429.85,-252.1 420.6,-257.27 425.84,-261.91"/>
</g>
<!-- 20&#45;&gt;2 -->
<g id="edge20" class="edge">
<title>20&#45;&gt;2</title>
<path fill="none" stroke="grey" stroke-width="2" d="M438.55,-215.6C435.07,-205.38 431.07,-192.13 429,-180 425.51,-159.55 424.58,-136.09 424.48,-118.39"/>
<polygon fill="grey" stroke="grey" stroke-width="2" points="427.98,-118.21 424.52,-108.2 420.98,-118.18 427.98,-118.21"/>
</g>
<!-- 20&#45;&gt;18 -->
<g id="edge45" class="edge">
<title>20&#45;&gt;18</title>
<path fill="none" stroke="grey" stroke-width="2" d="M456.12,-215.7C461.36,-207.56 467.7,-197.69 473.48,-188.7"/>
<polygon fill="grey" stroke="grey" stroke-width="2" points="476.54,-190.41 479,-180.1 470.65,-186.62 476.54,-190.41"/>
</g>
<!-- 21 -->
<g id="node22" class="node">
<title>21</title>
<path fill="none" stroke="#70d856" stroke-width="2" d="M733.5,-252C733.5,-252 610.5,-252 610.5,-252 604.5,-252 598.5,-246 598.5,-240 598.5,-240 598.5,-228 598.5,-228 598.5,-222 604.5,-216 610.5,-216 610.5,-216 733.5,-216 733.5,-216 739.5,-216 745.5,-222 745.5,-228 745.5,-228 745.5,-240 745.5,-240 745.5,-246 739.5,-252 733.5,-252"/>
<text text-anchor="middle" x="672" y="-237" font-family="sans" font-size="10.00">extract_sequences</text>
<text text-anchor="middle" x="672" y="-226" font-family="sans" font-size="10.00">folder: sub_uniform&#45;tempo</text>
</g>
<!-- 21&#45;&gt;3 -->
<g id="edge21" class="edge">
<title>21&#45;&gt;3</title>
<path fill="none" stroke="grey" stroke-width="2" d="M653.83,-215.91C644.52,-206.21 633.75,-193.36 627,-180 617.19,-160.57 611.86,-136.43 609.03,-118.19"/>
<polygon fill="grey" stroke="grey" stroke-width="2" points="612.49,-117.64 607.64,-108.22 605.55,-118.61 612.49,-117.64"/>
</g>
<!-- 23 -->
<g id="node24" class="node">
<title>23</title>
<path fill="none" stroke="#56d89a" stroke-width="2" d="M728,-180C728,-180 648,-180 648,-180 642,-180 636,-174 636,-168 636,-168 636,-156 636,-156 636,-150 642,-144 648,-144 648,-144 728,-144 728,-144 734,-144 740,-150 740,-156 740,-156 740,-168 740,-168 740,-174 734,-180 728,-180"/>
<text text-anchor="middle" x="688" y="-159.5" font-family="sans" font-size="10.00">generate_fasttree</text>
</g>
<!-- 21&#45;&gt;23 -->
<g id="edge48" class="edge">
<title>21&#45;&gt;23</title>
<path fill="none" stroke="grey" stroke-width="2" d="M675.96,-215.7C677.72,-207.98 679.84,-198.71 681.8,-190.11"/>
<polygon fill="grey" stroke="grey" stroke-width="2" points="685.27,-190.63 684.09,-180.1 678.45,-189.07 685.27,-190.63"/>
</g>
<!-- 22 -->
<g id="node23" class="node">
<title>22</title>
<path fill="none" stroke="#56d86b" stroke-width="2" d="M703,-324C703,-324 585,-324 585,-324 579,-324 573,-318 573,-312 573,-312 573,-300 573,-300 573,-294 579,-288 585,-288 585,-288 703,-288 703,-288 709,-288 715,-294 715,-300 715,-300 715,-312 715,-312 715,-318 709,-324 703,-324"/>
<text text-anchor="middle" x="644" y="-309" font-family="sans" font-size="10.00">sub_uniform_tempo</text>
<text text-anchor="middle" x="644" y="-298" font-family="sans" font-size="10.00">sample: gisaid_cov_mafft</text>
</g>
<!-- 22&#45;&gt;3 -->
<g id="edge22" class="edge">
<title>22&#45;&gt;3</title>
<path fill="none" stroke="grey" stroke-width="2" d="M618.62,-287.95C607.29,-278.79 595.12,-266.4 589,-252 570.25,-207.89 584.02,-151.1 595.31,-118.1"/>
<polygon fill="grey" stroke="grey" stroke-width="2" points="598.76,-118.86 598.85,-108.27 592.17,-116.49 598.76,-118.86"/>
</g>
<!-- 22&#45;&gt;21 -->
<g id="edge47" class="edge">
<title>22&#45;&gt;21</title>
<path fill="none" stroke="grey" stroke-width="2" d="M650.92,-287.7C654.07,-279.81 657.88,-270.3 661.38,-261.55"/>
<polygon fill="grey" stroke="grey" stroke-width="2" points="664.69,-262.69 665.16,-252.1 658.19,-260.09 664.69,-262.69"/>
</g>
<!-- 23&#45;&gt;3 -->
<g id="edge23" class="edge">
<title>23&#45;&gt;3</title>
<path fill="none" stroke="grey" stroke-width="2" d="M667.73,-143.7C657.5,-134.97 644.94,-124.24 633.82,-114.75"/>
<polygon fill="grey" stroke="grey" stroke-width="2" points="635.91,-111.94 626.04,-108.1 631.37,-117.26 635.91,-111.94"/>
</g>
<!-- 23&#45;&gt;9 -->
<g id="edge32" class="edge">
<title>23&#45;&gt;9</title>
<path fill="none" stroke="grey" stroke-width="2" d="M688.25,-143.7C688.36,-135.98 688.49,-126.71 688.61,-118.11"/>
<polygon fill="grey" stroke="grey" stroke-width="2" points="692.11,-118.15 688.76,-108.1 685.11,-118.05 692.11,-118.15"/>
</g>
<!-- 24 -->
<g id="node25" class="node">
<title>24</title>
<path fill="none" stroke="#ced856" stroke-width="2" d="M908,-324C908,-324 788,-324 788,-324 782,-324 776,-318 776,-312 776,-312 776,-300 776,-300 776,-294 782,-288 788,-288 788,-288 908,-288 908,-288 914,-288 920,-294 920,-300 920,-300 920,-312 920,-312 920,-318 914,-324 908,-324"/>
<text text-anchor="middle" x="848" y="-309" font-family="sans" font-size="10.00">sub_uniform_spatiotempo</text>
<text text-anchor="middle" x="848" y="-298" font-family="sans" font-size="10.00">sample: gisaid_cov_mafft</text>
</g>
<!-- 24&#45;&gt;4 -->
<g id="edge24" class="edge">
<title>24&#45;&gt;4</title>
<path fill="none" stroke="grey" stroke-width="2" d="M822.52,-287.89C811.06,-278.71 798.65,-266.33 792,-252 771.91,-208.69 774.59,-151.63 778.62,-118.37"/>
<polygon fill="grey" stroke="grey" stroke-width="2" points="782.09,-118.82 779.95,-108.45 775.15,-117.9 782.09,-118.82"/>
</g>
<!-- 26 -->
<g id="node27" class="node">
<title>26</title>
<path fill="none" stroke="#70d856" stroke-width="2" d="M966.5,-252C966.5,-252 813.5,-252 813.5,-252 807.5,-252 801.5,-246 801.5,-240 801.5,-240 801.5,-228 801.5,-228 801.5,-222 807.5,-216 813.5,-216 813.5,-216 966.5,-216 966.5,-216 972.5,-216 978.5,-222 978.5,-228 978.5,-228 978.5,-240 978.5,-240 978.5,-246 972.5,-252 966.5,-252"/>
<text text-anchor="middle" x="890" y="-237" font-family="sans" font-size="10.00">extract_sequences</text>
<text text-anchor="middle" x="890" y="-226" font-family="sans" font-size="10.00">folder: sub_uniform&#45;spatiotempo</text>
</g>
<!-- 24&#45;&gt;26 -->
<g id="edge50" class="edge">
<title>24&#45;&gt;26</title>
<path fill="none" stroke="grey" stroke-width="2" d="M858.38,-287.7C863.26,-279.56 869.19,-269.69 874.58,-260.7"/>
<polygon fill="grey" stroke="grey" stroke-width="2" points="877.59,-262.48 879.74,-252.1 871.59,-258.88 877.59,-262.48"/>
</g>
<!-- 25 -->
<g id="node26" class="node">
<title>25</title>
<path fill="none" stroke="#56d89a" stroke-width="2" d="M932,-180C932,-180 852,-180 852,-180 846,-180 840,-174 840,-168 840,-168 840,-156 840,-156 840,-150 846,-144 852,-144 852,-144 932,-144 932,-144 938,-144 944,-150 944,-156 944,-156 944,-168 944,-168 944,-174 938,-180 932,-180"/>
<text text-anchor="middle" x="892" y="-159.5" font-family="sans" font-size="10.00">generate_fasttree</text>
</g>
<!-- 25&#45;&gt;4 -->
<g id="edge25" class="edge">
<title>25&#45;&gt;4</title>
<path fill="none" stroke="grey" stroke-width="2" d="M865.34,-143.88C851.22,-134.81 833.69,-123.55 818.44,-113.76"/>
<polygon fill="grey" stroke="grey" stroke-width="2" points="820.07,-110.65 809.77,-108.19 816.29,-116.54 820.07,-110.65"/>
</g>
<!-- 25&#45;&gt;12 -->
<g id="edge37" class="edge">
<title>25&#45;&gt;12</title>
<path fill="none" stroke="grey" stroke-width="2" d="M887.8,-143.7C885.9,-135.9 883.62,-126.51 881.52,-117.83"/>
<polygon fill="grey" stroke="grey" stroke-width="2" points="884.92,-117 879.15,-108.1 878.11,-118.65 884.92,-117"/>
</g>
<!-- 26&#45;&gt;4 -->
<g id="edge26" class="edge">
<title>26&#45;&gt;4</title>
<path fill="none" stroke="grey" stroke-width="2" d="M867.54,-215.96C855.73,-206.27 841.56,-193.42 831,-180 815.81,-160.71 802.89,-135.93 794.3,-117.42"/>
<polygon fill="grey" stroke="grey" stroke-width="2" points="797.4,-115.79 790.09,-108.11 791.02,-118.67 797.4,-115.79"/>
</g>
<!-- 26&#45;&gt;25 -->
<g id="edge49" class="edge">
<title>26&#45;&gt;25</title>
<path fill="none" stroke="grey" stroke-width="2" d="M890.49,-215.7C890.71,-207.98 890.98,-198.71 891.23,-190.11"/>
<polygon fill="grey" stroke="grey" stroke-width="2" points="894.72,-190.2 891.51,-180.1 887.73,-190 894.72,-190.2"/>
</g>
<!-- 27 -->
<g id="node28" class="node">
<title>27</title>
<path fill="none" stroke="#56d89a" stroke-width="2" d="M1164,-180C1164,-180 1084,-180 1084,-180 1078,-180 1072,-174 1072,-168 1072,-168 1072,-156 1072,-156 1072,-150 1078,-144 1084,-144 1084,-144 1164,-144 1164,-144 1170,-144 1176,-150 1176,-156 1176,-156 1176,-168 1176,-168 1176,-174 1170,-180 1164,-180"/>
<text text-anchor="middle" x="1124" y="-159.5" font-family="sans" font-size="10.00">generate_fasttree</text>
</g>
<!-- 27&#45;&gt;6 -->
<g id="edge28" class="edge">
<title>27&#45;&gt;6</title>
<path fill="none" stroke="grey" stroke-width="2" d="M1119.8,-143.7C1117.9,-135.9 1115.62,-126.51 1113.52,-117.83"/>
<polygon fill="grey" stroke="grey" stroke-width="2" points="1116.92,-117 1111.15,-108.1 1110.11,-118.65 1116.92,-117"/>
</g>
<!-- 27&#45;&gt;10 -->
<g id="edge33" class="edge">
<title>27&#45;&gt;10</title>
<path fill="none" stroke="grey" stroke-width="2" d="M1097.34,-143.88C1083.22,-134.81 1065.69,-123.55 1050.44,-113.76"/>
<polygon fill="grey" stroke="grey" stroke-width="2" points="1052.07,-110.65 1041.77,-108.19 1048.29,-116.54 1052.07,-110.65"/>
</g>
<!-- 28 -->
<g id="node29" class="node">
<title>28</title>
<path fill="none" stroke="#56d89a" stroke-width="2" d="M151,-396C151,-396 71,-396 71,-396 65,-396 59,-390 59,-384 59,-384 59,-372 59,-372 59,-366 65,-360 71,-360 71,-360 151,-360 151,-360 157,-360 163,-366 163,-372 163,-372 163,-384 163,-384 163,-390 157,-396 151,-396"/>
<text text-anchor="middle" x="111" y="-375.5" font-family="sans" font-size="10.00">generate_fasttree</text>
</g>
<!-- 28&#45;&gt;7 -->
<g id="edge29" class="edge">
<title>28&#45;&gt;7</title>
<path fill="none" stroke="grey" stroke-width="2" d="M109.43,-359.87C107.22,-335.67 103.15,-291.21 100.51,-262.39"/>
<polygon fill="grey" stroke="grey" stroke-width="2" points="103.97,-261.83 99.57,-252.19 97,-262.47 103.97,-261.83"/>
</g>
<!-- 28&#45;&gt;8 -->
<g id="edge30" class="edge">
<title>28&#45;&gt;8</title>
<path fill="none" stroke="grey" stroke-width="2" d="M93.2,-359.7C84.4,-351.14 73.62,-340.66 64,-331.3"/>
<polygon fill="grey" stroke="grey" stroke-width="2" points="66.2,-328.57 56.59,-324.1 61.32,-333.58 66.2,-328.57"/>
</g>
<!-- 28&#45;&gt;17 -->
<g id="edge44" class="edge">
<title>28&#45;&gt;17</title>
<path fill="none" stroke="grey" stroke-width="2" d="M122.37,-359.7C127.72,-351.56 134.2,-341.69 140.11,-332.7"/>
<polygon fill="grey" stroke="grey" stroke-width="2" points="143.19,-334.38 145.76,-324.1 137.34,-330.54 143.19,-334.38"/>
</g>
<!-- 29 -->
<g id="node30" class="node">
<title>29</title>
<path fill="none" stroke="#70d856" stroke-width="2" d="M130,-473C130,-473 12,-473 12,-473 6,-473 0,-467 0,-461 0,-461 0,-444 0,-444 0,-438 6,-432 12,-432 12,-432 130,-432 130,-432 136,-432 142,-438 142,-444 142,-444 142,-461 142,-461 142,-467 136,-473 130,-473"/>
<text text-anchor="middle" x="71" y="-461" font-family="sans" font-size="10.00">extract_sequences</text>
<text text-anchor="middle" x="71" y="-450" font-family="sans" font-size="10.00">folder: sub</text>
<text text-anchor="middle" x="71" y="-439" font-family="sans" font-size="10.00">sample: gisaid_cov_mafft</text>
</g>
<!-- 29&#45;&gt;8 -->
<g id="edge31" class="edge">
<title>29&#45;&gt;8</title>
<path fill="none" stroke="grey" stroke-width="2" d="M62.24,-431.83C57.93,-421.38 53.02,-408.2 50,-396 44.96,-375.63 42.18,-352.04 40.68,-334.26"/>
<polygon fill="grey" stroke="grey" stroke-width="2" points="44.17,-333.99 39.91,-324.28 37.19,-334.52 44.17,-333.99"/>
</g>
<!-- 29&#45;&gt;28 -->
<g id="edge52" class="edge">
<title>29&#45;&gt;28</title>
<path fill="none" stroke="grey" stroke-width="2" d="M81.93,-431.69C86.41,-423.56 91.67,-414.03 96.47,-405.33"/>
<polygon fill="grey" stroke="grey" stroke-width="2" points="99.68,-406.77 101.44,-396.32 93.55,-403.38 99.68,-406.77"/>
</g>
<!-- 30 -->
<g id="node31" class="node">
<title>30</title>
<path fill="none" stroke="#5682d8" stroke-width="2" d="M1143,-324C1143,-324 1025,-324 1025,-324 1019,-324 1013,-318 1013,-312 1013,-312 1013,-300 1013,-300 1013,-294 1019,-288 1025,-288 1025,-288 1143,-288 1143,-288 1149,-288 1155,-294 1155,-300 1155,-300 1155,-312 1155,-312 1155,-318 1149,-324 1143,-324"/>
<text text-anchor="middle" x="1084" y="-309" font-family="sans" font-size="10.00">sub_postsubsam</text>
<text text-anchor="middle" x="1084" y="-298" font-family="sans" font-size="10.00">sample: gisaid_cov_mafft</text>
</g>
<!-- 30&#45;&gt;10 -->
<g id="edge34" class="edge">
<title>30&#45;&gt;10</title>
<path fill="none" stroke="grey" stroke-width="2" d="M1056.91,-287.92C1044.94,-278.82 1032.01,-266.5 1025,-252 1004.19,-208.96 1006.68,-151.73 1010.66,-118.38"/>
<polygon fill="grey" stroke="grey" stroke-width="2" points="1014.19,-118.41 1012.03,-108.03 1007.25,-117.49 1014.19,-118.41"/>
</g>
<!-- 31 -->
<g id="node32" class="node">
<title>31</title>
<path fill="none" stroke="#70d856" stroke-width="2" d="M1179.5,-252C1179.5,-252 1046.5,-252 1046.5,-252 1040.5,-252 1034.5,-246 1034.5,-240 1034.5,-240 1034.5,-228 1034.5,-228 1034.5,-222 1040.5,-216 1046.5,-216 1046.5,-216 1179.5,-216 1179.5,-216 1185.5,-216 1191.5,-222 1191.5,-228 1191.5,-228 1191.5,-240 1191.5,-240 1191.5,-246 1185.5,-252 1179.5,-252"/>
<text text-anchor="middle" x="1113" y="-237" font-family="sans" font-size="10.00">extract_sequences</text>
<text text-anchor="middle" x="1113" y="-226" font-family="sans" font-size="10.00">folder: sub_postsubsampling</text>
</g>
<!-- 30&#45;&gt;31 -->
<g id="edge53" class="edge">
<title>30&#45;&gt;31</title>
<path fill="none" stroke="grey" stroke-width="2" d="M1091.17,-287.7C1094.43,-279.81 1098.37,-270.3 1102,-261.55"/>
<polygon fill="grey" stroke="grey" stroke-width="2" points="1105.32,-262.68 1105.91,-252.1 1098.85,-260 1105.32,-262.68"/>
</g>
<!-- 31&#45;&gt;10 -->
<g id="edge35" class="edge">
<title>31&#45;&gt;10</title>
<path fill="none" stroke="grey" stroke-width="2" d="M1094.63,-215.88C1084.59,-205.96 1072.33,-192.92 1063,-180 1048.71,-160.22 1035.79,-135.67 1026.96,-117.38"/>
<polygon fill="grey" stroke="grey" stroke-width="2" points="1030.05,-115.72 1022.61,-108.18 1023.72,-118.71 1030.05,-115.72"/>
</g>
<!-- 31&#45;&gt;27 -->
<g id="edge51" class="edge">
<title>31&#45;&gt;27</title>
<path fill="none" stroke="grey" stroke-width="2" d="M1115.72,-215.7C1116.93,-207.98 1118.39,-198.71 1119.74,-190.11"/>
<polygon fill="grey" stroke="grey" stroke-width="2" points="1123.22,-190.53 1121.31,-180.1 1116.3,-189.44 1123.22,-190.53"/>
</g>
<!-- 32 -->
<g id="node33" class="node">
<title>32</title>
<path fill="none" stroke="#70d856" stroke-width="2" d="M1347.5,-252C1347.5,-252 1260.5,-252 1260.5,-252 1254.5,-252 1248.5,-246 1248.5,-240 1248.5,-240 1248.5,-228 1248.5,-228 1248.5,-222 1254.5,-216 1260.5,-216 1260.5,-216 1347.5,-216 1347.5,-216 1353.5,-216 1359.5,-222 1359.5,-228 1359.5,-228 1359.5,-240 1359.5,-240 1359.5,-246 1353.5,-252 1347.5,-252"/>
<text text-anchor="middle" x="1304" y="-237" font-family="sans" font-size="10.00">extract_sequences</text>
<text text-anchor="middle" x="1304" y="-226" font-family="sans" font-size="10.00">folder: sub_random</text>
</g>
<!-- 32&#45;&gt;13 -->
<g id="edge38" class="edge">
<title>32&#45;&gt;13</title>
<path fill="none" stroke="grey" stroke-width="2" d="M1294.95,-215.87C1282,-191.35 1258.07,-146.03 1242.87,-117.26"/>
<polygon fill="grey" stroke="grey" stroke-width="2" points="1245.84,-115.4 1238.08,-108.19 1239.65,-118.67 1245.84,-115.4"/>
</g>
<!-- 33 -->
<g id="node34" class="node">
<title>33</title>
<path fill="none" stroke="#56d89a" stroke-width="2" d="M1378,-180C1378,-180 1298,-180 1298,-180 1292,-180 1286,-174 1286,-168 1286,-168 1286,-156 1286,-156 1286,-150 1292,-144 1298,-144 1298,-144 1378,-144 1378,-144 1384,-144 1390,-150 1390,-156 1390,-156 1390,-168 1390,-168 1390,-174 1384,-180 1378,-180"/>
<text text-anchor="middle" x="1338" y="-159.5" font-family="sans" font-size="10.00">generate_fasttree</text>
</g>
<!-- 32&#45;&gt;33 -->
<g id="edge55" class="edge">
<title>32&#45;&gt;33</title>
<path fill="none" stroke="grey" stroke-width="2" d="M1312.4,-215.7C1316.27,-207.73 1320.95,-198.1 1325.24,-189.26"/>
<polygon fill="grey" stroke="grey" stroke-width="2" points="1328.47,-190.63 1329.69,-180.1 1322.17,-187.57 1328.47,-190.63"/>
</g>
<!-- 33&#45;&gt;13 -->
<g id="edge39" class="edge">
<title>33&#45;&gt;13</title>
<path fill="none" stroke="grey" stroke-width="2" d="M1311.34,-143.88C1297.22,-134.81 1279.69,-123.55 1264.44,-113.76"/>
<polygon fill="grey" stroke="grey" stroke-width="2" points="1266.07,-110.65 1255.77,-108.19 1262.29,-116.54 1266.07,-110.65"/>
</g>
<!-- 33&#45;&gt;14 -->
<g id="edge41" class="edge">
<title>33&#45;&gt;14</title>
<path fill="none" stroke="grey" stroke-width="2" d="M1335.78,-143.7C1334.78,-135.98 1333.59,-126.71 1332.49,-118.11"/>
<polygon fill="grey" stroke="grey" stroke-width="2" points="1335.95,-117.58 1331.2,-108.1 1329,-118.47 1335.95,-117.58"/>
</g>
<!-- 34 -->
<g id="node35" class="node">
<title>34</title>
<path fill="none" stroke="#9fd856" stroke-width="2" d="M1307,-324C1307,-324 1189,-324 1189,-324 1183,-324 1177,-318 1177,-312 1177,-312 1177,-300 1177,-300 1177,-294 1183,-288 1189,-288 1189,-288 1307,-288 1307,-288 1313,-288 1319,-294 1319,-300 1319,-300 1319,-312 1319,-312 1319,-318 1313,-324 1307,-324"/>
<text text-anchor="middle" x="1248" y="-309" font-family="sans" font-size="10.00">sub_random</text>
<text text-anchor="middle" x="1248" y="-298" font-family="sans" font-size="10.00">sample: gisaid_cov_mafft</text>
</g>
<!-- 34&#45;&gt;13 -->
<g id="edge40" class="edge">
<title>34&#45;&gt;13</title>
<path fill="none" stroke="grey" stroke-width="2" d="M1244.62,-287.88C1242.69,-277.53 1240.39,-264.05 1239,-252 1233.62,-205.46 1231,-151 1229.83,-118.84"/>
<polygon fill="grey" stroke="grey" stroke-width="2" points="1233.32,-118.32 1229.48,-108.45 1226.32,-118.56 1233.32,-118.32"/>
</g>
<!-- 34&#45;&gt;32 -->
<g id="edge54" class="edge">
<title>34&#45;&gt;32</title>
<path fill="none" stroke="grey" stroke-width="2" d="M1261.84,-287.7C1268.49,-279.39 1276.58,-269.28 1283.89,-260.14"/>
<polygon fill="grey" stroke="grey" stroke-width="2" points="1286.8,-262.1 1290.32,-252.1 1281.34,-257.73 1286.8,-262.1"/>
</g>
</g>
</svg>
