<?xml version="1.0" encoding="UTF-8" standalone="no"?>
<!DOCTYPE svg PUBLIC "-//W3C//DTD SVG 1.1//EN"
 "http://www.w3.org/Graphics/SVG/1.1/DTD/svg11.dtd">
<!-- Generated by graphviz version 2.42.3 (20191010.1750)
 -->
<!-- Title: snakemake_dag Pages: 1 -->
<svg width="1387pt" height="481pt"
 viewBox="0.00 0.00 1386.50 481.00" xmlns="http://www.w3.org/2000/svg" xmlns:xlink="http://www.w3.org/1999/xlink">
<g id="graph0" class="graph" transform="scale(1 1) rotate(0) translate(4 477)">
<title>snakemake_dag</title>
<polygon fill="white" stroke="transparent" points="-4,4 -4,-477 1382.5,-477 1382.5,4 -4,4"/>
<!-- 0 -->
<g id="node1" class="node">
<title>0</title>
<path fill="none" stroke="#5682d8" stroke-width="2" d="M643,-36C643,-36 613,-36 613,-36 607,-36 601,-30 601,-24 601,-24 601,-12 601,-12 601,-6 607,0 613,0 613,0 643,0 643,0 649,0 655,-6 655,-12 655,-12 655,-24 655,-24 655,-30 649,-36 643,-36"/>
<text text-anchor="middle" x="628" y="-15.5" font-family="sans" font-size="10.00">all</text>
</g>
<!-- 1 -->
<g id="node2" class="node">
<title>1</title>
<path fill="none" stroke="#d88556" stroke-width="2" d="M217,-108C217,-108 181,-108 181,-108 175,-108 169,-102 169,-96 169,-96 169,-84 169,-84 169,-78 175,-72 181,-72 181,-72 217,-72 217,-72 223,-72 229,-78 229,-84 229,-84 229,-96 229,-96 229,-102 223,-108 217,-108"/>
<text text-anchor="middle" x="199" y="-87.5" font-family="sans" font-size="10.00">tree_img</text>
</g>
<!-- 1&#45;&gt;0 -->
<g id="edge1" class="edge">
<title>1&#45;&gt;0</title>
<path fill="none" stroke="grey" stroke-width="2" d="M229.22,-79.75C238.98,-76.99 249.89,-74.13 260,-72 379.61,-46.83 523.63,-29.9 590.5,-22.79"/>
<polygon fill="grey" stroke="grey" stroke-width="2" points="590.97,-26.26 600.55,-21.73 590.24,-19.29 590.97,-26.26"/>
</g>
<!-- 2 -->
<g id="node3" class="node">
<title>2</title>
<path fill="none" stroke="#ced856" stroke-width="2" d="M326.5,-108C326.5,-108 281.5,-108 281.5,-108 275.5,-108 269.5,-102 269.5,-96 269.5,-96 269.5,-84 269.5,-84 269.5,-78 275.5,-72 281.5,-72 281.5,-72 326.5,-72 326.5,-72 332.5,-72 338.5,-78 338.5,-84 338.5,-84 338.5,-96 338.5,-96 338.5,-102 332.5,-108 326.5,-108"/>
<text text-anchor="middle" x="304" y="-87.5" font-family="sans" font-size="10.00">root_to_tip</text>
</g>
<!-- 2&#45;&gt;0 -->
<g id="edge2" class="edge">
<title>2&#45;&gt;0</title>
<path fill="none" stroke="grey" stroke-width="2" d="M338.61,-77.26C344.7,-75.37 351.01,-73.54 357,-72 439.53,-50.77 538.11,-33.47 590.65,-24.88"/>
<polygon fill="grey" stroke="grey" stroke-width="2" points="591.53,-28.28 600.84,-23.23 590.41,-21.37 591.53,-28.28"/>
</g>
<!-- 3 -->
<g id="node4" class="node">
<title>3</title>
<path fill="none" stroke="#d88556" stroke-width="2" d="M414,-108C414,-108 378,-108 378,-108 372,-108 366,-102 366,-96 366,-96 366,-84 366,-84 366,-78 372,-72 378,-72 378,-72 414,-72 414,-72 420,-72 426,-78 426,-84 426,-84 426,-96 426,-96 426,-102 420,-108 414,-108"/>
<text text-anchor="middle" x="396" y="-87.5" font-family="sans" font-size="10.00">tree_img</text>
</g>
<!-- 3&#45;&gt;0 -->
<g id="edge3" class="edge">
<title>3&#45;&gt;0</title>
<path fill="none" stroke="grey" stroke-width="2" d="M426.24,-78.23C432.43,-76.11 438.91,-73.94 445,-72 495.28,-56.01 553.94,-39.37 591.03,-29.1"/>
<polygon fill="grey" stroke="grey" stroke-width="2" points="592.18,-32.41 600.89,-26.38 590.32,-25.66 592.18,-32.41"/>
</g>
<!-- 4 -->
<g id="node5" class="node">
<title>4</title>
<path fill="none" stroke="#ced856" stroke-width="2" d="M129.5,-108C129.5,-108 84.5,-108 84.5,-108 78.5,-108 72.5,-102 72.5,-96 72.5,-96 72.5,-84 72.5,-84 72.5,-78 78.5,-72 84.5,-72 84.5,-72 129.5,-72 129.5,-72 135.5,-72 141.5,-78 141.5,-84 141.5,-84 141.5,-96 141.5,-96 141.5,-102 135.5,-108 129.5,-108"/>
<text text-anchor="middle" x="107" y="-87.5" font-family="sans" font-size="10.00">root_to_tip</text>
</g>
<!-- 4&#45;&gt;0 -->
<g id="edge4" class="edge">
<title>4&#45;&gt;0</title>
<path fill="none" stroke="grey" stroke-width="2" d="M141.52,-76.85C147.62,-75.01 153.95,-73.3 160,-72 317.99,-38.06 510.96,-24.94 590.74,-20.72"/>
<polygon fill="grey" stroke="grey" stroke-width="2" points="590.98,-24.21 600.79,-20.2 590.62,-17.22 590.98,-24.21"/>
</g>
<!-- 5 -->
<g id="node6" class="node">
<title>5</title>
<path fill="none" stroke="#ced856" stroke-width="2" d="M480.5,-324C480.5,-324 435.5,-324 435.5,-324 429.5,-324 423.5,-318 423.5,-312 423.5,-312 423.5,-300 423.5,-300 423.5,-294 429.5,-288 435.5,-288 435.5,-288 480.5,-288 480.5,-288 486.5,-288 492.5,-294 492.5,-300 492.5,-300 492.5,-312 492.5,-312 492.5,-318 486.5,-324 480.5,-324"/>
<text text-anchor="middle" x="458" y="-303.5" font-family="sans" font-size="10.00">root_to_tip</text>
</g>
<!-- 5&#45;&gt;0 -->
<g id="edge5" class="edge">
<title>5&#45;&gt;0</title>
<path fill="none" stroke="grey" stroke-width="2" d="M458.11,-287.85C459.26,-245.97 467.74,-137.19 523,-72 540.71,-51.1 568.69,-37.55 591.32,-29.39"/>
<polygon fill="grey" stroke="grey" stroke-width="2" points="592.62,-32.64 600.96,-26.11 590.37,-26.02 592.62,-32.64"/>
</g>
<!-- 6 -->
<g id="node7" class="node">
<title>6</title>
<path fill="none" stroke="#d88556" stroke-width="2" d="M882,-108C882,-108 846,-108 846,-108 840,-108 834,-102 834,-96 834,-96 834,-84 834,-84 834,-78 840,-72 846,-72 846,-72 882,-72 882,-72 888,-72 894,-78 894,-84 894,-84 894,-96 894,-96 894,-102 888,-108 882,-108"/>
<text text-anchor="middle" x="864" y="-87.5" font-family="sans" font-size="10.00">tree_img</text>
</g>
<!-- 6&#45;&gt;0 -->
<g id="edge6" class="edge">
<title>6&#45;&gt;0</title>
<path fill="none" stroke="grey" stroke-width="2" d="M833.78,-79.14C826.34,-76.76 818.39,-74.26 811,-72 760.54,-56.6 701.92,-39.82 664.89,-29.35"/>
<polygon fill="grey" stroke="grey" stroke-width="2" points="665.62,-25.92 655.05,-26.57 663.72,-32.66 665.62,-25.92"/>
</g>
<!-- 7 -->
<g id="node8" class="node">
<title>7</title>
<path fill="none" stroke="#ced856" stroke-width="2" d="M977.5,-108C977.5,-108 932.5,-108 932.5,-108 926.5,-108 920.5,-102 920.5,-96 920.5,-96 920.5,-84 920.5,-84 920.5,-78 926.5,-72 932.5,-72 932.5,-72 977.5,-72 977.5,-72 983.5,-72 989.5,-78 989.5,-84 989.5,-84 989.5,-96 989.5,-96 989.5,-102 983.5,-108 977.5,-108"/>
<text text-anchor="middle" x="955" y="-87.5" font-family="sans" font-size="10.00">root_to_tip</text>
</g>
<!-- 7&#45;&gt;0 -->
<g id="edge7" class="edge">
<title>7&#45;&gt;0</title>
<path fill="none" stroke="grey" stroke-width="2" d="M920.49,-77.05C914.69,-75.23 908.7,-73.48 903,-72 818.93,-50.25 718.32,-33.05 665.16,-24.64"/>
<polygon fill="grey" stroke="grey" stroke-width="2" points="665.61,-21.17 655.18,-23.08 664.52,-28.08 665.61,-21.17"/>
</g>
<!-- 8 -->
<g id="node9" class="node">
<title>8</title>
<path fill="none" stroke="#d88556" stroke-width="2" d="M535,-252C535,-252 499,-252 499,-252 493,-252 487,-246 487,-240 487,-240 487,-228 487,-228 487,-222 493,-216 499,-216 499,-216 535,-216 535,-216 541,-216 547,-222 547,-228 547,-228 547,-240 547,-240 547,-246 541,-252 535,-252"/>
<text text-anchor="middle" x="517" y="-231.5" font-family="sans" font-size="10.00">tree_img</text>
</g>
<!-- 8&#45;&gt;0 -->
<g id="edge8" class="edge">
<title>8&#45;&gt;0</title>
<path fill="none" stroke="grey" stroke-width="2" d="M515.39,-215.84C513.32,-184.49 513.06,-117.04 543,-72 554.62,-54.53 574.16,-41.75 591.59,-33.13"/>
<polygon fill="grey" stroke="grey" stroke-width="2" points="593.39,-36.15 600.98,-28.76 590.44,-29.8 593.39,-36.15"/>
</g>
<!-- 9 -->
<g id="node10" class="node">
<title>9</title>
<path fill="none" stroke="#ced856" stroke-width="2" d="M609.5,-108C609.5,-108 564.5,-108 564.5,-108 558.5,-108 552.5,-102 552.5,-96 552.5,-96 552.5,-84 552.5,-84 552.5,-78 558.5,-72 564.5,-72 564.5,-72 609.5,-72 609.5,-72 615.5,-72 621.5,-78 621.5,-84 621.5,-84 621.5,-96 621.5,-96 621.5,-102 615.5,-108 609.5,-108"/>
<text text-anchor="middle" x="587" y="-87.5" font-family="sans" font-size="10.00">root_to_tip</text>
</g>
<!-- 9&#45;&gt;0 -->
<g id="edge9" class="edge">
<title>9&#45;&gt;0</title>
<path fill="none" stroke="grey" stroke-width="2" d="M597.13,-71.7C601.85,-63.64 607.56,-53.89 612.78,-44.98"/>
<polygon fill="grey" stroke="grey" stroke-width="2" points="615.95,-46.5 617.98,-36.1 609.91,-42.96 615.95,-46.5"/>
</g>
<!-- 10 -->
<g id="node11" class="node">
<title>10</title>
<path fill="none" stroke="#d88556" stroke-width="2" d="M688,-108C688,-108 652,-108 652,-108 646,-108 640,-102 640,-96 640,-96 640,-84 640,-84 640,-78 646,-72 652,-72 652,-72 688,-72 688,-72 694,-72 700,-78 700,-84 700,-84 700,-96 700,-96 700,-102 694,-108 688,-108"/>
<text text-anchor="middle" x="670" y="-87.5" font-family="sans" font-size="10.00">tree_img</text>
</g>
<!-- 10&#45;&gt;0 -->
<g id="edge10" class="edge">
<title>10&#45;&gt;0</title>
<path fill="none" stroke="grey" stroke-width="2" d="M659.62,-71.7C654.74,-63.56 648.81,-53.69 643.42,-44.7"/>
<polygon fill="grey" stroke="grey" stroke-width="2" points="646.41,-42.88 638.26,-36.1 640.41,-46.48 646.41,-42.88"/>
</g>
<!-- 11 -->
<g id="node12" class="node">
<title>11</title>
<path fill="none" stroke="#d88556" stroke-width="2" d="M1072,-108C1072,-108 1036,-108 1036,-108 1030,-108 1024,-102 1024,-96 1024,-96 1024,-84 1024,-84 1024,-78 1030,-72 1036,-72 1036,-72 1072,-72 1072,-72 1078,-72 1084,-78 1084,-84 1084,-84 1084,-96 1084,-96 1084,-102 1078,-108 1072,-108"/>
<text text-anchor="middle" x="1054" y="-87.5" font-family="sans" font-size="10.00">tree_img</text>
</g>
<!-- 11&#45;&gt;0 -->
<g id="edge11" class="edge">
<title>11&#45;&gt;0</title>
<path fill="none" stroke="grey" stroke-width="2" d="M1024,-78.97C1015.65,-76.43 1006.53,-73.89 998,-72 877.74,-45.3 732.37,-29.05 665.26,-22.44"/>
<polygon fill="grey" stroke="grey" stroke-width="2" points="665.47,-18.94 655.18,-21.46 664.8,-25.91 665.47,-18.94"/>
</g>
<!-- 12 -->
<g id="node13" class="node">
<title>12</title>
<path fill="none" stroke="#ced856" stroke-width="2" d="M790.5,-108C790.5,-108 745.5,-108 745.5,-108 739.5,-108 733.5,-102 733.5,-96 733.5,-96 733.5,-84 733.5,-84 733.5,-78 739.5,-72 745.5,-72 745.5,-72 790.5,-72 790.5,-72 796.5,-72 802.5,-78 802.5,-84 802.5,-84 802.5,-96 802.5,-96 802.5,-102 796.5,-108 790.5,-108"/>
<text text-anchor="middle" x="768" y="-87.5" font-family="sans" font-size="10.00">root_to_tip</text>
</g>
<!-- 12&#45;&gt;0 -->
<g id="edge12" class="edge">
<title>12&#45;&gt;0</title>
<path fill="none" stroke="grey" stroke-width="2" d="M733.75,-71.88C712.74,-61.37 685.85,-47.92 664.44,-37.22"/>
<polygon fill="grey" stroke="grey" stroke-width="2" points="665.85,-34.01 655.34,-32.67 662.72,-40.27 665.85,-34.01"/>
</g>
<!-- 13 -->
<g id="node14" class="node">
<title>13</title>
<path fill="none" stroke="#d88556" stroke-width="2" d="M1330,-108C1330,-108 1294,-108 1294,-108 1288,-108 1282,-102 1282,-96 1282,-96 1282,-84 1282,-84 1282,-78 1288,-72 1294,-72 1294,-72 1330,-72 1330,-72 1336,-72 1342,-78 1342,-84 1342,-84 1342,-96 1342,-96 1342,-102 1336,-108 1330,-108"/>
<text text-anchor="middle" x="1312" y="-87.5" font-family="sans" font-size="10.00">tree_img</text>
</g>
<!-- 13&#45;&gt;0 -->
<g id="edge13" class="edge">
<title>13&#45;&gt;0</title>
<path fill="none" stroke="grey" stroke-width="2" d="M1281.82,-78.74C1273.24,-76.17 1263.83,-73.67 1255,-72 1034.12,-30.19 763.2,-21.35 665.41,-19.49"/>
<polygon fill="grey" stroke="grey" stroke-width="2" points="665.22,-15.99 655.16,-19.31 665.09,-22.99 665.22,-15.99"/>
</g>
<!-- 14 -->
<g id="node15" class="node">
<title>14</title>
<path fill="none" stroke="#ced856" stroke-width="2" d="M1234.5,-108C1234.5,-108 1189.5,-108 1189.5,-108 1183.5,-108 1177.5,-102 1177.5,-96 1177.5,-96 1177.5,-84 1177.5,-84 1177.5,-78 1183.5,-72 1189.5,-72 1189.5,-72 1234.5,-72 1234.5,-72 1240.5,-72 1246.5,-78 1246.5,-84 1246.5,-84 1246.5,-96 1246.5,-96 1246.5,-102 1240.5,-108 1234.5,-108"/>
<text text-anchor="middle" x="1212" y="-87.5" font-family="sans" font-size="10.00">root_to_tip</text>
</g>
<!-- 14&#45;&gt;0 -->
<g id="edge14" class="edge">
<title>14&#45;&gt;0</title>
<path fill="none" stroke="grey" stroke-width="2" d="M1177.41,-83.79C1153.68,-80.29 1121.46,-75.65 1093,-72 934.25,-51.62 744.49,-31.22 665.43,-22.9"/>
<polygon fill="grey" stroke="grey" stroke-width="2" points="665.34,-19.37 655.03,-21.81 664.61,-26.33 665.34,-19.37"/>
</g>
<!-- 15 -->
<g id="node16" class="node">
<title>15</title>
<path fill="none" stroke="#d85656" stroke-width="2" d="M187,-180C187,-180 107,-180 107,-180 101,-180 95,-174 95,-168 95,-168 95,-156 95,-156 95,-150 101,-144 107,-144 107,-144 187,-144 187,-144 193,-144 199,-150 199,-156 199,-156 199,-168 199,-168 199,-174 193,-180 187,-180"/>
<text text-anchor="middle" x="147" y="-159.5" font-family="sans" font-size="10.00">generate_fasttree</text>
</g>
<!-- 15&#45;&gt;1 -->
<g id="edge15" class="edge">
<title>15&#45;&gt;1</title>
<path fill="none" stroke="grey" stroke-width="2" d="M159.85,-143.7C166.03,-135.39 173.54,-125.28 180.32,-116.14"/>
<polygon fill="grey" stroke="grey" stroke-width="2" points="183.14,-118.22 186.29,-108.1 177.52,-114.04 183.14,-118.22"/>
</g>
<!-- 15&#45;&gt;4 -->
<g id="edge22" class="edge">
<title>15&#45;&gt;4</title>
<path fill="none" stroke="grey" stroke-width="2" d="M137.11,-143.7C132.51,-135.64 126.94,-125.89 121.85,-116.98"/>
<polygon fill="grey" stroke="grey" stroke-width="2" points="124.77,-115.05 116.77,-108.1 118.7,-118.52 124.77,-115.05"/>
</g>
<!-- 16 -->
<g id="node17" class="node">
<title>16</title>
<path fill="none" stroke="#56d8c9" stroke-width="2" d="M419.5,-252C419.5,-252 266.5,-252 266.5,-252 260.5,-252 254.5,-246 254.5,-240 254.5,-240 254.5,-228 254.5,-228 254.5,-222 260.5,-216 266.5,-216 266.5,-216 419.5,-216 419.5,-216 425.5,-216 431.5,-222 431.5,-228 431.5,-228 431.5,-240 431.5,-240 431.5,-246 425.5,-252 419.5,-252"/>
<text text-anchor="middle" x="343" y="-237" font-family="sans" font-size="10.00">extract_sequences</text>
<text text-anchor="middle" x="343" y="-226" font-family="sans" font-size="10.00">folder: sub_uniform&#45;spatiotempo</text>
</g>
<!-- 16&#45;&gt;2 -->
<g id="edge16" class="edge">
<title>16&#45;&gt;2</title>
<path fill="none" stroke="grey" stroke-width="2" d="M333.37,-215.84C328.08,-205.7 321.83,-192.45 318,-180 311.76,-159.72 308.21,-135.95 306.24,-118.08"/>
<polygon fill="grey" stroke="grey" stroke-width="2" points="309.71,-117.66 305.23,-108.05 302.75,-118.35 309.71,-117.66"/>
</g>
<!-- 17 -->
<g id="node18" class="node">
<title>17</title>
<path fill="none" stroke="#d85656" stroke-width="2" d="M419,-180C419,-180 339,-180 339,-180 333,-180 327,-174 327,-168 327,-168 327,-156 327,-156 327,-150 333,-144 339,-144 339,-144 419,-144 419,-144 425,-144 431,-150 431,-156 431,-156 431,-168 431,-168 431,-174 425,-180 419,-180"/>
<text text-anchor="middle" x="379" y="-159.5" font-family="sans" font-size="10.00">generate_fasttree</text>
</g>
<!-- 16&#45;&gt;17 -->
<g id="edge44" class="edge">
<title>16&#45;&gt;17</title>
<path fill="none" stroke="grey" stroke-width="2" d="M351.9,-215.7C356,-207.73 360.95,-198.1 365.49,-189.26"/>
<polygon fill="grey" stroke="grey" stroke-width="2" points="368.74,-190.6 370.2,-180.1 362.52,-187.4 368.74,-190.6"/>
</g>
<!-- 17&#45;&gt;2 -->
<g id="edge17" class="edge">
<title>17&#45;&gt;2</title>
<path fill="none" stroke="grey" stroke-width="2" d="M360.46,-143.7C351.2,-135.05 339.84,-124.45 329.74,-115.03"/>
<polygon fill="grey" stroke="grey" stroke-width="2" points="332.02,-112.37 322.33,-108.1 327.25,-117.49 332.02,-112.37"/>
</g>
<!-- 17&#45;&gt;3 -->
<g id="edge19" class="edge">
<title>17&#45;&gt;3</title>
<path fill="none" stroke="grey" stroke-width="2" d="M383.2,-143.7C385.1,-135.9 387.38,-126.51 389.48,-117.83"/>
<polygon fill="grey" stroke="grey" stroke-width="2" points="392.89,-118.65 391.85,-108.1 386.08,-117 392.89,-118.65"/>
</g>
<!-- 18 -->
<g id="node19" class="node">
<title>18</title>
<path fill="none" stroke="#56d86b" stroke-width="2" d="M363,-324C363,-324 243,-324 243,-324 237,-324 231,-318 231,-312 231,-312 231,-300 231,-300 231,-294 237,-288 243,-288 243,-288 363,-288 363,-288 369,-288 375,-294 375,-300 375,-300 375,-312 375,-312 375,-318 369,-324 363,-324"/>
<text text-anchor="middle" x="303" y="-309" font-family="sans" font-size="10.00">sub_uniform_spatiotempo</text>
<text text-anchor="middle" x="303" y="-298" font-family="sans" font-size="10.00">sample: gisaid_cov_mafft</text>
</g>
<!-- 18&#45;&gt;2 -->
<g id="edge18" class="edge">
<title>18&#45;&gt;2</title>
<path fill="none" stroke="grey" stroke-width="2" d="M275.66,-287.77C263.89,-278.72 251.38,-266.48 245,-252 238.55,-237.36 241.5,-231.61 245,-216 253.14,-179.66 273.09,-141.45 287.54,-116.99"/>
<polygon fill="grey" stroke="grey" stroke-width="2" points="290.61,-118.69 292.78,-108.32 284.61,-115.07 290.61,-118.69"/>
</g>
<!-- 18&#45;&gt;16 -->
<g id="edge43" class="edge">
<title>18&#45;&gt;16</title>
<path fill="none" stroke="grey" stroke-width="2" d="M312.89,-287.7C317.49,-279.64 323.06,-269.89 328.15,-260.98"/>
<polygon fill="grey" stroke="grey" stroke-width="2" points="331.3,-262.52 333.23,-252.1 325.23,-259.05 331.3,-262.52"/>
</g>
<!-- 19 -->
<g id="node20" class="node">
<title>19</title>
<path fill="none" stroke="#56b1d8" stroke-width="2" d="M130,-324C130,-324 12,-324 12,-324 6,-324 0,-318 0,-312 0,-312 0,-300 0,-300 0,-294 6,-288 12,-288 12,-288 130,-288 130,-288 136,-288 142,-294 142,-300 142,-300 142,-312 142,-312 142,-318 136,-324 130,-324"/>
<text text-anchor="middle" x="71" y="-309" font-family="sans" font-size="10.00">sub_random</text>
<text text-anchor="middle" x="71" y="-298" font-family="sans" font-size="10.00">sample: gisaid_cov_mafft</text>
</g>
<!-- 19&#45;&gt;4 -->
<g id="edge20" class="edge">
<title>19&#45;&gt;4</title>
<path fill="none" stroke="grey" stroke-width="2" d="M61.46,-287.93C56.36,-277.82 50.61,-264.57 48,-252 44.75,-236.33 44.68,-231.65 48,-216 55.73,-179.57 75.77,-141.38 90.35,-116.94"/>
<polygon fill="grey" stroke="grey" stroke-width="2" points="93.41,-118.64 95.64,-108.29 87.44,-115 93.41,-118.64"/>
</g>
<!-- 20 -->
<g id="node21" class="node">
<title>20</title>
<path fill="none" stroke="#56d8c9" stroke-width="2" d="M156.5,-252C156.5,-252 69.5,-252 69.5,-252 63.5,-252 57.5,-246 57.5,-240 57.5,-240 57.5,-228 57.5,-228 57.5,-222 63.5,-216 69.5,-216 69.5,-216 156.5,-216 156.5,-216 162.5,-216 168.5,-222 168.5,-228 168.5,-228 168.5,-240 168.5,-240 168.5,-246 162.5,-252 156.5,-252"/>
<text text-anchor="middle" x="113" y="-237" font-family="sans" font-size="10.00">extract_sequences</text>
<text text-anchor="middle" x="113" y="-226" font-family="sans" font-size="10.00">folder: sub_random</text>
</g>
<!-- 19&#45;&gt;20 -->
<g id="edge45" class="edge">
<title>19&#45;&gt;20</title>
<path fill="none" stroke="grey" stroke-width="2" d="M81.38,-287.7C86.26,-279.56 92.19,-269.69 97.58,-260.7"/>
<polygon fill="grey" stroke="grey" stroke-width="2" points="100.59,-262.48 102.74,-252.1 94.59,-258.88 100.59,-262.48"/>
</g>
<!-- 20&#45;&gt;4 -->
<g id="edge21" class="edge">
<title>20&#45;&gt;4</title>
<path fill="none" stroke="grey" stroke-width="2" d="M101.53,-215.67C95.63,-205.69 89.04,-192.65 86,-180 82.27,-164.44 83,-159.72 86,-144 87.71,-135.06 90.9,-125.7 94.29,-117.37"/>
<polygon fill="grey" stroke="grey" stroke-width="2" points="97.51,-118.73 98.28,-108.17 91.09,-115.95 97.51,-118.73"/>
</g>
<!-- 20&#45;&gt;15 -->
<g id="edge42" class="edge">
<title>20&#45;&gt;15</title>
<path fill="none" stroke="grey" stroke-width="2" d="M121.4,-215.7C125.27,-207.73 129.95,-198.1 134.24,-189.26"/>
<polygon fill="grey" stroke="grey" stroke-width="2" points="137.47,-190.63 138.69,-180.1 131.17,-187.57 137.47,-190.63"/>
</g>
<!-- 21 -->
<g id="node22" class="node">
<title>21</title>
<path fill="none" stroke="#56d8c9" stroke-width="2" d="M548,-473C548,-473 430,-473 430,-473 424,-473 418,-467 418,-461 418,-461 418,-444 418,-444 418,-438 424,-432 430,-432 430,-432 548,-432 548,-432 554,-432 560,-438 560,-444 560,-444 560,-461 560,-461 560,-467 554,-473 548,-473"/>
<text text-anchor="middle" x="489" y="-461" font-family="sans" font-size="10.00">extract_sequences</text>
<text text-anchor="middle" x="489" y="-450" font-family="sans" font-size="10.00">folder: sub</text>
<text text-anchor="middle" x="489" y="-439" font-family="sans" font-size="10.00">sample: gisaid_cov_mafft</text>
</g>
<!-- 21&#45;&gt;5 -->
<g id="edge23" class="edge">
<title>21&#45;&gt;5</title>
<path fill="none" stroke="grey" stroke-width="2" d="M480.19,-431.84C475.86,-421.4 470.95,-408.22 468,-396 463.11,-375.72 460.6,-352.26 459.31,-334.51"/>
<polygon fill="grey" stroke="grey" stroke-width="2" points="462.79,-334.04 458.66,-324.28 455.81,-334.48 462.79,-334.04"/>
</g>
<!-- 22 -->
<g id="node23" class="node">
<title>22</title>
<path fill="none" stroke="#d85656" stroke-width="2" d="M569,-396C569,-396 489,-396 489,-396 483,-396 477,-390 477,-384 477,-384 477,-372 477,-372 477,-366 483,-360 489,-360 489,-360 569,-360 569,-360 575,-360 581,-366 581,-372 581,-372 581,-384 581,-384 581,-390 575,-396 569,-396"/>
<text text-anchor="middle" x="529" y="-375.5" font-family="sans" font-size="10.00">generate_fasttree</text>
</g>
<!-- 21&#45;&gt;22 -->
<g id="edge46" class="edge">
<title>21&#45;&gt;22</title>
<path fill="none" stroke="grey" stroke-width="2" d="M499.93,-431.69C504.41,-423.56 509.67,-414.03 514.47,-405.33"/>
<polygon fill="grey" stroke="grey" stroke-width="2" points="517.68,-406.77 519.44,-396.32 511.55,-403.38 517.68,-406.77"/>
</g>
<!-- 22&#45;&gt;5 -->
<g id="edge24" class="edge">
<title>22&#45;&gt;5</title>
<path fill="none" stroke="grey" stroke-width="2" d="M511.45,-359.7C502.77,-351.14 492.14,-340.66 482.65,-331.3"/>
<polygon fill="grey" stroke="grey" stroke-width="2" points="484.93,-328.63 475.35,-324.1 480.01,-333.62 484.93,-328.63"/>
</g>
<!-- 22&#45;&gt;8 -->
<g id="edge29" class="edge">
<title>22&#45;&gt;8</title>
<path fill="none" stroke="grey" stroke-width="2" d="M527.55,-359.87C525.51,-335.67 521.75,-291.21 519.31,-262.39"/>
<polygon fill="grey" stroke="grey" stroke-width="2" points="522.78,-261.86 518.45,-252.19 515.81,-262.45 522.78,-261.86"/>
</g>
<!-- 28 -->
<g id="node29" class="node">
<title>28</title>
<path fill="none" stroke="#9fd856" stroke-width="2" d="M591,-324C591,-324 561,-324 561,-324 555,-324 549,-318 549,-312 549,-312 549,-300 549,-300 549,-294 555,-288 561,-288 561,-288 591,-288 591,-288 597,-288 603,-294 603,-300 603,-300 603,-312 603,-312 603,-318 597,-324 591,-324"/>
<text text-anchor="middle" x="576" y="-303.5" font-family="sans" font-size="10.00">sub_rtl</text>
</g>
<!-- 22&#45;&gt;28 -->
<g id="edge51" class="edge">
<title>22&#45;&gt;28</title>
<path fill="none" stroke="grey" stroke-width="2" d="M540.62,-359.7C546.14,-351.47 552.85,-341.48 558.93,-332.42"/>
<polygon fill="grey" stroke="grey" stroke-width="2" points="561.85,-334.36 564.52,-324.1 556.04,-330.46 561.85,-334.36"/>
</g>
<!-- 23 -->
<g id="node24" class="node">
<title>23</title>
<path fill="none" stroke="#d85656" stroke-width="2" d="M907,-180C907,-180 827,-180 827,-180 821,-180 815,-174 815,-168 815,-168 815,-156 815,-156 815,-150 821,-144 827,-144 827,-144 907,-144 907,-144 913,-144 919,-150 919,-156 919,-156 919,-168 919,-168 919,-174 913,-180 907,-180"/>
<text text-anchor="middle" x="867" y="-159.5" font-family="sans" font-size="10.00">generate_fasttree</text>
</g>
<!-- 23&#45;&gt;6 -->
<g id="edge25" class="edge">
<title>23&#45;&gt;6</title>
<path fill="none" stroke="grey" stroke-width="2" d="M866.26,-143.7C865.93,-135.98 865.53,-126.71 865.16,-118.11"/>
<polygon fill="grey" stroke="grey" stroke-width="2" points="868.66,-117.95 864.73,-108.1 861.66,-118.25 868.66,-117.95"/>
</g>
<!-- 23&#45;&gt;12 -->
<g id="edge37" class="edge">
<title>23&#45;&gt;12</title>
<path fill="none" stroke="grey" stroke-width="2" d="M842.78,-143.88C830.08,-134.89 814.34,-123.76 800.58,-114.03"/>
<polygon fill="grey" stroke="grey" stroke-width="2" points="802.5,-111.11 792.31,-108.19 798.46,-116.82 802.5,-111.11"/>
</g>
<!-- 24 -->
<g id="node25" class="node">
<title>24</title>
<path fill="none" stroke="#56d89a" stroke-width="2" d="M1120,-324C1120,-324 982,-324 982,-324 976,-324 970,-318 970,-312 970,-312 970,-300 970,-300 970,-294 976,-288 982,-288 982,-288 1120,-288 1120,-288 1126,-288 1132,-294 1132,-300 1132,-300 1132,-312 1132,-312 1132,-318 1126,-324 1120,-324"/>
<text text-anchor="middle" x="1051" y="-309" font-family="sans" font-size="10.00">sub_uniform_spatiotempo_alt</text>
<text text-anchor="middle" x="1051" y="-298" font-family="sans" font-size="10.00">sample: gisaid_cov_mafft</text>
</g>
<!-- 24&#45;&gt;7 -->
<g id="edge26" class="edge">
<title>24&#45;&gt;7</title>
<path fill="none" stroke="grey" stroke-width="2" d="M1011.96,-287.89C997,-279.31 981.29,-267.42 972,-252 947.12,-210.73 947.94,-152.53 951.2,-118.58"/>
<polygon fill="grey" stroke="grey" stroke-width="2" points="954.69,-118.79 952.31,-108.47 947.74,-118.02 954.69,-118.79"/>
</g>
<!-- 26 -->
<g id="node27" class="node">
<title>26</title>
<path fill="none" stroke="#56d8c9" stroke-width="2" d="M1163,-252C1163,-252 993,-252 993,-252 987,-252 981,-246 981,-240 981,-240 981,-228 981,-228 981,-222 987,-216 993,-216 993,-216 1163,-216 1163,-216 1169,-216 1175,-222 1175,-228 1175,-228 1175,-240 1175,-240 1175,-246 1169,-252 1163,-252"/>
<text text-anchor="middle" x="1078" y="-237" font-family="sans" font-size="10.00">extract_sequences</text>
<text text-anchor="middle" x="1078" y="-226" font-family="sans" font-size="10.00">folder: sub_uniform&#45;spatiotempo&#45;alt</text>
</g>
<!-- 24&#45;&gt;26 -->
<g id="edge49" class="edge">
<title>24&#45;&gt;26</title>
<path fill="none" stroke="grey" stroke-width="2" d="M1057.67,-287.7C1060.71,-279.81 1064.38,-270.3 1067.76,-261.55"/>
<polygon fill="grey" stroke="grey" stroke-width="2" points="1071.07,-262.69 1071.4,-252.1 1064.54,-260.17 1071.07,-262.69"/>
</g>
<!-- 25 -->
<g id="node26" class="node">
<title>25</title>
<path fill="none" stroke="#d85656" stroke-width="2" d="M1111,-180C1111,-180 1031,-180 1031,-180 1025,-180 1019,-174 1019,-168 1019,-168 1019,-156 1019,-156 1019,-150 1025,-144 1031,-144 1031,-144 1111,-144 1111,-144 1117,-144 1123,-150 1123,-156 1123,-156 1123,-168 1123,-168 1123,-174 1117,-180 1111,-180"/>
<text text-anchor="middle" x="1071" y="-159.5" font-family="sans" font-size="10.00">generate_fasttree</text>
</g>
<!-- 25&#45;&gt;7 -->
<g id="edge27" class="edge">
<title>25&#45;&gt;7</title>
<path fill="none" stroke="grey" stroke-width="2" d="M1042.62,-143.88C1027.46,-134.72 1008.59,-123.34 992.26,-113.48"/>
<polygon fill="grey" stroke="grey" stroke-width="2" points="993.86,-110.36 983.49,-108.19 990.24,-116.35 993.86,-110.36"/>
</g>
<!-- 25&#45;&gt;11 -->
<g id="edge34" class="edge">
<title>25&#45;&gt;11</title>
<path fill="none" stroke="grey" stroke-width="2" d="M1066.8,-143.7C1064.9,-135.9 1062.62,-126.51 1060.52,-117.83"/>
<polygon fill="grey" stroke="grey" stroke-width="2" points="1063.92,-117 1058.15,-108.1 1057.11,-118.65 1063.92,-117"/>
</g>
<!-- 26&#45;&gt;7 -->
<g id="edge28" class="edge">
<title>26&#45;&gt;7</title>
<path fill="none" stroke="grey" stroke-width="2" d="M1051.63,-215.81C1038.21,-206.27 1022.19,-193.59 1010,-180 992.96,-161 978.06,-136.05 968.08,-117.4"/>
<polygon fill="grey" stroke="grey" stroke-width="2" points="971.05,-115.53 963.32,-108.29 964.85,-118.77 971.05,-115.53"/>
</g>
<!-- 26&#45;&gt;25 -->
<g id="edge48" class="edge">
<title>26&#45;&gt;25</title>
<path fill="none" stroke="grey" stroke-width="2" d="M1076.27,-215.7C1075.5,-207.98 1074.57,-198.71 1073.71,-190.11"/>
<polygon fill="grey" stroke="grey" stroke-width="2" points="1077.19,-189.71 1072.71,-180.1 1070.22,-190.4 1077.19,-189.71"/>
</g>
<!-- 27 -->
<g id="node28" class="node">
<title>27</title>
<path fill="none" stroke="#d85656" stroke-width="2" d="M709,-180C709,-180 629,-180 629,-180 623,-180 617,-174 617,-168 617,-168 617,-156 617,-156 617,-150 623,-144 629,-144 629,-144 709,-144 709,-144 715,-144 721,-150 721,-156 721,-156 721,-168 721,-168 721,-174 715,-180 709,-180"/>
<text text-anchor="middle" x="669" y="-159.5" font-family="sans" font-size="10.00">generate_fasttree</text>
</g>
<!-- 27&#45;&gt;9 -->
<g id="edge30" class="edge">
<title>27&#45;&gt;9</title>
<path fill="none" stroke="grey" stroke-width="2" d="M648.73,-143.7C638.5,-134.97 625.94,-124.24 614.82,-114.75"/>
<polygon fill="grey" stroke="grey" stroke-width="2" points="616.91,-111.94 607.04,-108.1 612.37,-117.26 616.91,-111.94"/>
</g>
<!-- 27&#45;&gt;10 -->
<g id="edge33" class="edge">
<title>27&#45;&gt;10</title>
<path fill="none" stroke="grey" stroke-width="2" d="M669.25,-143.7C669.36,-135.98 669.49,-126.71 669.61,-118.11"/>
<polygon fill="grey" stroke="grey" stroke-width="2" points="673.11,-118.15 669.76,-108.1 666.11,-118.05 673.11,-118.15"/>
</g>
<!-- 28&#45;&gt;9 -->
<g id="edge31" class="edge">
<title>28&#45;&gt;9</title>
<path fill="none" stroke="grey" stroke-width="2" d="M576.88,-287.85C578.78,-250.83 583.29,-163.18 585.59,-118.39"/>
<polygon fill="grey" stroke="grey" stroke-width="2" points="589.1,-118.4 586.11,-108.23 582.11,-118.04 589.1,-118.4"/>
</g>
<!-- 29 -->
<g id="node30" class="node">
<title>29</title>
<path fill="none" stroke="#56d8c9" stroke-width="2" d="M699,-252C699,-252 615,-252 615,-252 609,-252 603,-246 603,-240 603,-240 603,-228 603,-228 603,-222 609,-216 615,-216 615,-216 699,-216 699,-216 705,-216 711,-222 711,-228 711,-228 711,-240 711,-240 711,-246 705,-252 699,-252"/>
<text text-anchor="middle" x="657" y="-237" font-family="sans" font-size="10.00">extract_sequences</text>
<text text-anchor="middle" x="657" y="-226" font-family="sans" font-size="10.00">folder: sub_rtl</text>
</g>
<!-- 28&#45;&gt;29 -->
<g id="edge52" class="edge">
<title>28&#45;&gt;29</title>
<path fill="none" stroke="grey" stroke-width="2" d="M596.02,-287.7C606.13,-278.97 618.54,-268.24 629.52,-258.75"/>
<polygon fill="grey" stroke="grey" stroke-width="2" points="631.93,-261.29 637.21,-252.1 627.35,-255.99 631.93,-261.29"/>
</g>
<!-- 29&#45;&gt;9 -->
<g id="edge32" class="edge">
<title>29&#45;&gt;9</title>
<path fill="none" stroke="grey" stroke-width="2" d="M636.68,-215.73C626.65,-206.17 615.18,-193.5 608,-180 597.78,-160.79 592.48,-136.63 589.77,-118.33"/>
<polygon fill="grey" stroke="grey" stroke-width="2" points="593.22,-117.77 588.45,-108.32 586.28,-118.69 593.22,-117.77"/>
</g>
<!-- 29&#45;&gt;27 -->
<g id="edge50" class="edge">
<title>29&#45;&gt;27</title>
<path fill="none" stroke="grey" stroke-width="2" d="M659.97,-215.7C661.29,-207.98 662.88,-198.71 664.35,-190.11"/>
<polygon fill="grey" stroke="grey" stroke-width="2" points="667.83,-190.55 666.07,-180.1 660.93,-189.37 667.83,-190.55"/>
</g>
<!-- 30 -->
<g id="node31" class="node">
<title>30</title>
<path fill="none" stroke="#70d856" stroke-width="2" d="M852,-324C852,-324 734,-324 734,-324 728,-324 722,-318 722,-312 722,-312 722,-300 722,-300 722,-294 728,-288 734,-288 734,-288 852,-288 852,-288 858,-288 864,-294 864,-300 864,-300 864,-312 864,-312 864,-318 858,-324 852,-324"/>
<text text-anchor="middle" x="793" y="-309" font-family="sans" font-size="10.00">sub_postsubsam</text>
<text text-anchor="middle" x="793" y="-298" font-family="sans" font-size="10.00">sample: gisaid_cov_mafft</text>
</g>
<!-- 30&#45;&gt;12 -->
<g id="edge35" class="edge">
<title>30&#45;&gt;12</title>
<path fill="none" stroke="grey" stroke-width="2" d="M777.82,-287.7C770.27,-277.94 761.93,-265.1 758,-252 744.39,-206.7 753.09,-151.09 760.59,-118.49"/>
<polygon fill="grey" stroke="grey" stroke-width="2" points="764.09,-118.91 763.05,-108.37 757.29,-117.26 764.09,-118.91"/>
</g>
<!-- 31 -->
<g id="node32" class="node">
<title>31</title>
<path fill="none" stroke="#56d8c9" stroke-width="2" d="M912.5,-252C912.5,-252 779.5,-252 779.5,-252 773.5,-252 767.5,-246 767.5,-240 767.5,-240 767.5,-228 767.5,-228 767.5,-222 773.5,-216 779.5,-216 779.5,-216 912.5,-216 912.5,-216 918.5,-216 924.5,-222 924.5,-228 924.5,-228 924.5,-240 924.5,-240 924.5,-246 918.5,-252 912.5,-252"/>
<text text-anchor="middle" x="846" y="-237" font-family="sans" font-size="10.00">extract_sequences</text>
<text text-anchor="middle" x="846" y="-226" font-family="sans" font-size="10.00">folder: sub_postsubsampling</text>
</g>
<!-- 30&#45;&gt;31 -->
<g id="edge53" class="edge">
<title>30&#45;&gt;31</title>
<path fill="none" stroke="grey" stroke-width="2" d="M806.1,-287.7C812.39,-279.39 820.05,-269.28 826.96,-260.14"/>
<polygon fill="grey" stroke="grey" stroke-width="2" points="829.8,-262.19 833.05,-252.1 824.22,-257.96 829.8,-262.19"/>
</g>
<!-- 31&#45;&gt;12 -->
<g id="edge36" class="edge">
<title>31&#45;&gt;12</title>
<path fill="none" stroke="grey" stroke-width="2" d="M831.16,-215.6C823.08,-205.6 813.28,-192.57 806,-180 794.47,-160.1 784.41,-136.03 777.54,-117.95"/>
<polygon fill="grey" stroke="grey" stroke-width="2" points="780.73,-116.48 773.97,-108.32 774.16,-118.91 780.73,-116.48"/>
</g>
<!-- 31&#45;&gt;23 -->
<g id="edge47" class="edge">
<title>31&#45;&gt;23</title>
<path fill="none" stroke="grey" stroke-width="2" d="M851.19,-215.7C853.53,-207.9 856.35,-198.51 858.95,-189.83"/>
<polygon fill="grey" stroke="grey" stroke-width="2" points="862.35,-190.69 861.87,-180.1 855.64,-188.68 862.35,-190.69"/>
</g>
<!-- 32 -->
<g id="node33" class="node">
<title>32</title>
<path fill="none" stroke="#d85656" stroke-width="2" d="M1361,-180C1361,-180 1281,-180 1281,-180 1275,-180 1269,-174 1269,-168 1269,-168 1269,-156 1269,-156 1269,-150 1275,-144 1281,-144 1281,-144 1361,-144 1361,-144 1367,-144 1373,-150 1373,-156 1373,-156 1373,-168 1373,-168 1373,-174 1367,-180 1361,-180"/>
<text text-anchor="middle" x="1321" y="-159.5" font-family="sans" font-size="10.00">generate_fasttree</text>
</g>
<!-- 32&#45;&gt;13 -->
<g id="edge38" class="edge">
<title>32&#45;&gt;13</title>
<path fill="none" stroke="grey" stroke-width="2" d="M1318.78,-143.7C1317.78,-135.98 1316.59,-126.71 1315.49,-118.11"/>
<polygon fill="grey" stroke="grey" stroke-width="2" points="1318.95,-117.58 1314.2,-108.1 1312,-118.47 1318.95,-117.58"/>
</g>
<!-- 32&#45;&gt;14 -->
<g id="edge39" class="edge">
<title>32&#45;&gt;14</title>
<path fill="none" stroke="grey" stroke-width="2" d="M1294.34,-143.88C1280.22,-134.81 1262.69,-123.55 1247.44,-113.76"/>
<polygon fill="grey" stroke="grey" stroke-width="2" points="1249.07,-110.65 1238.77,-108.19 1245.29,-116.54 1249.07,-110.65"/>
</g>
<!-- 33 -->
<g id="node34" class="node">
<title>33</title>
<path fill="none" stroke="#56d8c9" stroke-width="2" d="M1366.5,-252C1366.5,-252 1243.5,-252 1243.5,-252 1237.5,-252 1231.5,-246 1231.5,-240 1231.5,-240 1231.5,-228 1231.5,-228 1231.5,-222 1237.5,-216 1243.5,-216 1243.5,-216 1366.5,-216 1366.5,-216 1372.5,-216 1378.5,-222 1378.5,-228 1378.5,-228 1378.5,-240 1378.5,-240 1378.5,-246 1372.5,-252 1366.5,-252"/>
<text text-anchor="middle" x="1305" y="-237" font-family="sans" font-size="10.00">extract_sequences</text>
<text text-anchor="middle" x="1305" y="-226" font-family="sans" font-size="10.00">folder: sub_uniform&#45;tempo</text>
</g>
<!-- 33&#45;&gt;14 -->
<g id="edge40" class="edge">
<title>33&#45;&gt;14</title>
<path fill="none" stroke="grey" stroke-width="2" d="M1288.61,-215.59C1279.61,-205.59 1268.58,-192.56 1260,-180 1246.3,-159.94 1233.38,-135.56 1224.41,-117.4"/>
<polygon fill="grey" stroke="grey" stroke-width="2" points="1227.37,-115.48 1219.85,-108.01 1221.07,-118.53 1227.37,-115.48"/>
</g>
<!-- 33&#45;&gt;32 -->
<g id="edge54" class="edge">
<title>33&#45;&gt;32</title>
<path fill="none" stroke="grey" stroke-width="2" d="M1308.96,-215.7C1310.72,-207.98 1312.84,-198.71 1314.8,-190.11"/>
<polygon fill="grey" stroke="grey" stroke-width="2" points="1318.27,-190.63 1317.09,-180.1 1311.45,-189.07 1318.27,-190.63"/>
</g>
<!-- 34 -->
<g id="node35" class="node">
<title>34</title>
<path fill="none" stroke="#d8b456" stroke-width="2" d="M1288,-324C1288,-324 1170,-324 1170,-324 1164,-324 1158,-318 1158,-312 1158,-312 1158,-300 1158,-300 1158,-294 1164,-288 1170,-288 1170,-288 1288,-288 1288,-288 1294,-288 1300,-294 1300,-300 1300,-300 1300,-312 1300,-312 1300,-318 1294,-324 1288,-324"/>
<text text-anchor="middle" x="1229" y="-309" font-family="sans" font-size="10.00">sub_uniform_tempo</text>
<text text-anchor="middle" x="1229" y="-298" font-family="sans" font-size="10.00">sample: gisaid_cov_mafft</text>
</g>
<!-- 34&#45;&gt;14 -->
<g id="edge41" class="edge">
<title>34&#45;&gt;14</title>
<path fill="none" stroke="grey" stroke-width="2" d="M1226.43,-287.85C1224.95,-277.49 1223.16,-264.01 1222,-252 1217.48,-205.37 1214.6,-150.94 1213.14,-118.81"/>
<polygon fill="grey" stroke="grey" stroke-width="2" points="1216.62,-118.26 1212.69,-108.42 1209.63,-118.57 1216.62,-118.26"/>
</g>
<!-- 34&#45;&gt;33 -->
<g id="edge55" class="edge">
<title>34&#45;&gt;33</title>
<path fill="none" stroke="grey" stroke-width="2" d="M1247.79,-287.7C1257.17,-279.05 1268.68,-268.45 1278.91,-259.03"/>
<polygon fill="grey" stroke="grey" stroke-width="2" points="1281.45,-261.45 1286.43,-252.1 1276.7,-256.3 1281.45,-261.45"/>
</g>
</g>
</svg>
